<svg width="200" height="200" viewBox="0 0 200 200" fill="none" xmlns="http://www.w3.org/2000/svg" role="img" aria-label="folder-server icon">
  <!-- white tile -->
  <rect x="6" y="6" width="188" height="188" rx="42" fill="#ffffff" stroke="#e5e7eb" stroke-width="1.5"/>

  <g transform="translate(37,45)" stroke="#0a0a0a" stroke-linejoin="round" stroke-linecap="round">
    <!-- folder outline -->
    <path d="M6 20 q0-10 10-10 h30 l12 12 h52 q10 0 10 10 v58 q0 10 -10 10 h-94 q-10 0 -10 -10 z"
          fill="none" stroke-width="6"/>

    <!-- server rack mini-icon inside -->
    <g stroke-width="4">
      <rect x="30" y="41" width="66" height="20" rx="5" fill="none"/>
      <rect x="30" y="65" width="66" height="20" rx="5" fill="none"/>
    </g>
    <g stroke-width="3">
      <line x1="58" y1="47" x2="86" y2="47"/>
      <line x1="58" y1="55" x2="86" y2="55"/>
      <line x1="58" y1="71" x2="86" y2="71"/>
      <line x1="58" y1="79" x2="86" y2="79"/>
    </g>
    <g fill="#0a0a0a" stroke="none">
      <circle cx="43" cy="51" r="3.2"/>
      <circle cx="43" cy="75" r="3.2"/>
    </g>
  </g>
</svg>
